<?xml version="1.0" encoding="utf-8"?>
<!-- Generator: Adobe Illustrator 27.5.0, SVG Export Plug-In . SVG Version: 6.00 Build 0)  -->
<svg version="1.1" xmlns="http://www.w3.org/2000/svg" xmlns:xlink="http://www.w3.org/1999/xlink" x="0px" y="0px"
	 viewBox="0 0 500 500" style="enable-background:new 0 0 500 500;" xml:space="preserve">
<g id="BACKGROUND">
	<rect y="0" style="fill:#FAFAFA;" width="500" height="500"/>
</g>
<g id="OBJECTS">
	<g>
		<g>
			<text transform="matrix(1 0 0 1 49.0893 69.6034)"><tspan x="0" y="0" style="fill:#606060; font-family:'Montserrat-Regular'; font-size:17.4032px;">Online </tspan><tspan x="74.606" y="0" style="fill:#606060; font-family:'Montserrat-ExtraLight'; font-size:17.4032px;">Education</tspan></text>
			<g>
				<path style="fill:#C682E8;" d="M94.341,146.338H53.523c-1.704,0-3.086-1.381-3.086-3.086v-6.204
					c0-1.704,1.382-3.086,3.086-3.086h40.818c1.704,0,3.086,1.381,3.086,3.086v6.204C97.426,144.957,96.045,146.338,94.341,146.338z
					"/>
				
					<text transform="matrix(1 0 0 1 54.0199 142.6283)" style="fill:#FAFAFA; font-family:'Montserrat-Regular'; font-size:6.4665px;">READ MORE</text>
			</g>
			<rect x="50.438" y="84.847" style="fill:none;" width="152.568" height="42.348"/>
			<text transform="matrix(1 0 0 1 50.4379 89.1508)"><tspan x="0" y="0" style="fill:#606060; font-family:'Montserrat-Light'; font-size:5.8011px;">Lorem ipsum dolor sit amet, consectetuer adipiscing </tspan><tspan x="0" y="6.961" style="fill:#606060; font-family:'Montserrat-Light'; font-size:5.8011px;">elit, sed diam nonummy nibh euismod tincidunt ut </tspan><tspan x="0" y="13.923" style="fill:#606060; font-family:'Montserrat-Light'; font-size:5.8011px;">laoreet dolore magna aliquam erat volutpat. Ut wisi </tspan><tspan x="0" y="20.884" style="fill:#606060; font-family:'Montserrat-Light'; font-size:5.8011px;">enim ad minim veniam, quis nostrud exerci tation </tspan><tspan x="0" y="27.845" style="fill:#606060; font-family:'Montserrat-Light'; font-size:5.8011px;">ullamcorper suscipit lobortis nisl ut aliquip ex ea </tspan><tspan x="0" y="34.807" style="fill:#606060; font-family:'Montserrat-Light'; font-size:5.8011px;">commodo consequat. Duis autem vel eum iriure </tspan></text>
		</g>
		<g>
			<path style="opacity:0.2;fill:#C682E8;" d="M200.318,246.636c-4.761-9.056-14.254-15.234-25.196-15.234
				c-8.137,0-15.471,3.421-20.657,8.897c-7.023-5.565-15.897-8.897-25.554-8.897c-11.572,0-22.022,4.778-29.505,12.461
				c-3.211-1.382-6.747-2.151-10.465-2.151c-5.734,0-11.038,1.828-15.374,4.925H200.318z"/>
			<path style="opacity:0.2;fill:#C682E8;" d="M294.882,175.105c5.301-10.082,15.871-16.962,28.053-16.962
				c9.06,0,17.225,3.809,22.999,9.906c7.82-6.196,17.699-9.906,28.451-9.906c12.884,0,24.519,5.32,32.85,13.874
				c3.575-1.539,7.512-2.395,11.651-2.395c6.384,0,12.29,2.035,17.117,5.483H294.882z"/>
			<path style="opacity:0.1;fill:#C682E8;" d="M71.209,442.171h343.327c22.193,0,36.489-23.393,26.505-43.215
				c-0.072-0.142-0.143-0.284-0.215-0.427c-9.89-19.703-17.542-43.4-8.012-63.28c6.985-14.572,22.641-25.716,23.011-41.872
				c0.251-10.966-7.284-21.042-16.873-26.367c-9.589-5.326-20.906-6.608-31.875-6.541c-16.954,0.103-36.366,2.34-48.482-9.52
				c-7.648-7.486-10.056-18.673-12.108-29.176c-3.373-17.268-6.746-34.536-10.12-51.804c-2.422-12.4-5.656-26.081-16.102-33.188
				c-9.386-6.385-22.347-5.355-32.434-0.146c-10.087,5.209-17.846,13.946-24.958,22.794
				c-29.333,36.489-60.779,78.931-81.964,121.031c-4.671,9.282-16.626,14.634-26.61,11.755c-9.162-2.642-16.94-8.674-25.752-12.301
				c-8.745-3.599-20.002-4.249-26.554,2.569c-6.41,6.669-5.538,17.542-2.159,26.153c3.378,8.611,8.82,16.51,10.491,25.608
				c2.282,12.422-2.881,25.099-9.947,35.568c-7.065,10.469-16.07,19.535-22.957,30.123c-6.886,10.587-11.627,23.513-8.716,35.803
				C69.233,437.971,70.091,440.137,71.209,442.171z"/>
			<g>
				<path style="fill:#BC66C5;" d="M92.849,275.847c3.906,26.246,27.908,59.613,64.533,85.868
					c36.626,26.255,75.932,38.271,102.043,33.542c-3.906-26.246-27.907-59.613-64.533-85.867
					C158.266,283.134,118.96,271.118,92.849,275.847z"/>
				<path style="opacity:0.5;fill:#BC66C5;" d="M121.234,297.201c-0.355,0.484-0.248,1.163,0.235,1.515
					c9.512,6.959,19.124,13.842,28.817,20.641c0.086,0.084,0.183,0.154,0.291,0.205c7.589,5.322,15.228,10.591,22.91,15.803
					l-29.016,2.207c-0.597,0.045-1.044,0.566-0.999,1.163c0.047,0.598,0.566,1.045,1.164,0.999l31.743-2.415
					c4.794,3.239,9.603,6.457,14.427,9.649c0.175,0.374,0.542,0.608,0.942,0.621c7.954,5.257,15.947,10.448,23.971,15.569
					l-37.324,2.142c-0.598,0.034-1.055,0.547-1.02,1.145c0.036,0.593,0.547,1.055,1.145,1.02l40.326-2.314
					c8.346,5.303,16.722,10.533,25.122,15.677c0.51,0.313,1.178,0.152,1.49-0.358c0.147-0.239,0.189-0.513,0.141-0.769
					c-0.055-0.289-0.227-0.555-0.499-0.721c-17.621-10.79-35.142-21.949-52.48-33.413l-11.809-36.845
					c-0.183-0.57-0.793-0.885-1.363-0.702c-0.57,0.184-0.878,0.793-0.702,1.363l10.984,34.27
					c-12.703-8.434-25.304-17.031-37.77-25.771c-1.783-5.609-2.794-11.432-2.99-17.318c-0.002-0.057-0.009-0.113-0.019-0.168
					c-0.098-0.516-0.56-0.897-1.101-0.879c-0.598,0.02-1.067,0.522-1.047,1.12c0.173,5.159,0.954,10.269,2.309,15.239
					c-8.86-6.237-17.654-12.541-26.361-18.911C122.266,296.613,121.588,296.718,121.234,297.201z"/>
			</g>
			<g>
				<path style="fill:#8766C5;" d="M137.68,175.963c-9.399,31.057-0.304,80.489,26.465,128.656
					c26.768,48.167,63.943,81.994,95.28,90.413c9.399-31.057,0.304-80.489-26.465-128.656S169.017,184.381,137.68,175.963z"/>
				<path style="opacity:0.5;fill:#8766C5;" d="M157.9,214.405c-0.645,0.349-0.882,1.156-0.532,1.798
					c6.878,12.665,13.908,25.298,21.07,37.88c0.051,0.138,0.122,0.266,0.214,0.378c5.609,9.85,11.3,19.667,17.068,29.444
					l-33.232-12.725c-0.684-0.262-1.45,0.08-1.712,0.763c-0.261,0.686,0.079,1.451,0.764,1.712l36.355,13.921
					c3.607,6.086,7.242,12.157,10.907,18.208c-0.002,0.505,0.281,0.956,0.717,1.179c6.046,9.969,12.17,19.885,18.363,29.74
					L185.5,319.566c-0.679-0.275-1.452,0.053-1.726,0.732c-0.271,0.674,0.053,1.452,0.732,1.726l45.791,18.518
					c6.455,10.225,12.982,20.385,19.58,30.461c0.4,0.613,1.223,0.784,1.835,0.383c0.288-0.188,0.478-0.468,0.557-0.777
					c0.09-0.348,0.039-0.733-0.175-1.058c-13.841-21.138-27.378-42.632-40.555-64.367l6.202-46.905
					c0.096-0.726-0.415-1.393-1.14-1.489c-0.726-0.095-1.386,0.418-1.489,1.14l-5.768,43.627
					c-9.635-15.963-19.073-32.053-28.286-48.23c0.96-7.132,2.886-14.099,5.745-20.708c0.027-0.064,0.05-0.13,0.067-0.196
					c0.161-0.622-0.15-1.284-0.758-1.548c-0.672-0.291-1.452,0.019-1.743,0.691c-2.505,5.793-4.312,11.852-5.412,18.054
					c-6.535-11.526-12.962-23.091-19.259-34.684C159.348,214.294,158.543,214.056,157.9,214.405z"/>
			</g>
			<linearGradient id="SVGID_1_" gradientUnits="userSpaceOnUse" x1="171.8436" y1="427.2945" x2="171.8436" y2="315.2129">
				<stop  offset="0" style="stop-color:#185A9D"/>
				<stop  offset="1" style="stop-color:#43CEA2"/>
			</linearGradient>
			<path style="fill:url(#SVGID_1_);" d="M275.857,360.797c0-14.63-11.86-26.49-26.49-26.49c-1.681,0-3.323,0.164-4.917,0.463
				c-7.259-11.735-20.24-19.557-35.052-19.557c-17.588,0-32.593,11.027-38.501,26.542c-2.453-0.689-5.037-1.066-7.71-1.066
				c-10.893,0-20.351,6.123-25.133,15.113c-2.339-1.663-5.191-2.651-8.279-2.651c-0.908,0-1.796,0.088-2.657,0.25
				c-3.922-6.341-10.937-10.568-18.941-10.568c-9.504,0-17.612,5.959-20.804,14.342c-1.326-0.372-2.722-0.576-4.166-0.576
				c-8.492,0-15.375,6.884-15.375,15.375c0,1.143,0.129,2.257,0.366,3.329h67.212h6.34h37.516v51.991h65.683v-51.991h26.58
				C274.262,371.136,275.857,366.154,275.857,360.797z"/>
			<g>
				<path style="fill:#BC66C5;" d="M445.223,268.719c-17.44,0-46.255,19.075-58.917,53.591
					c-13.042,34.375-3.766,67.663,9.411,79.087c9.764-15.103,17.143-39.568,27.064-65.477
					C432.256,309.845,442.707,286.527,445.223,268.719z"/>
				<path style="opacity:0.5;fill:#BC66C5;" d="M427.397,287.283c-0.283-0.227-0.731-0.135-0.999,0.206
					c-5.276,6.705-9.934,13.87-13.912,21.379c-0.05,0.07-0.091,0.145-0.12,0.225c-3.104,5.883-5.792,11.975-8.039,18.217
					c-1.609-6.311-2.829-12.884-3.613-19.676c-0.048-0.419-0.395-0.649-0.777-0.51c-0.383,0.14-0.653,0.596-0.602,1.017
					c0.889,7.456,2.299,14.65,4.17,21.523c-1.332,3.913-2.493,7.88-3.477,11.887c-0.186,0.215-0.256,0.518-0.189,0.783
					c-1.585,6.613-2.691,13.332-3.308,20.09c-3.747-7.495-6.953-15.531-9.515-24.031c-0.123-0.408-0.505-0.575-0.855-0.368
					c-0.347,0.206-0.533,0.71-0.408,1.12c2.811,9.215,6.376,17.884,10.561,25.913c-0.51,7.032-0.494,14.095,0.053,21.114
					c0.033,0.427,0.354,0.742,0.715,0.702c0.169-0.018,0.317-0.11,0.423-0.246c0.12-0.154,0.186-0.364,0.168-0.589
					c-1.14-14.599,0.051-29.393,3.51-43.683c6.432-5.824,13.186-10.862,20.11-15.112c0.321-0.197,0.441-0.62,0.27-0.949
					c-0.173-0.328-0.573-0.433-0.897-0.24c-6.482,3.958-12.818,8.599-18.886,13.922c2.717-10.44,6.645-20.586,11.694-30.172
					c3.465-1.949,7.122-3.227,10.803-3.825c0.036-0.006,0.07-0.015,0.105-0.026c0.322-0.105,0.555-0.436,0.54-0.789
					c-0.016-0.39-0.332-0.661-0.708-0.602c-3.237,0.509-6.459,1.532-9.563,3.058c3.714-6.763,7.988-13.234,12.777-19.32
					C427.692,287.965,427.68,287.509,427.397,287.283z"/>
			</g>
			<path style="opacity:0.1;" d="M436.004,300.869c-0.215,0.004-0.43,0.016-0.646,0.037c-6.093,0.607-9.178,7.434-11.316,13.172
				c-1.53,4.104-3.244,8.257-6.207,11.482c-2.963,3.225-7.445,5.385-11.729,4.476c-5.738-1.217-10.039-7.503-15.873-6.893
				c-2.041,0.214-3.78,1.265-5.2,2.741c-11.115,33.084-2.036,64.484,10.684,75.512c9.764-15.103,17.143-39.568,27.064-65.476
				C427.291,323.51,432.013,311.734,436.004,300.869z"/>
			<g>
				<path style="fill:#C54286;" d="M350.452,374.977c1.005-7.613,6.207-15.24,13.781-16.499c2.734-0.454,5.582-0.067,8.267-0.754
					c4.895-1.252,8.256-5.811,10.148-10.496c1.892-4.685,2.738-9.76,4.87-14.341c1.801-3.871,5.113-7.636,9.382-7.691
					c5.866-0.076,9.575,6.576,15.179,8.311c4.183,1.295,8.844-0.447,12.088-3.389s5.33-6.922,7.227-10.869
					c2.653-5.519,6.347-12.037,12.47-12.086c3.4-0.027,6.508,2.167,8.469,4.944c1.961,2.777,2.975,6.095,3.958,9.35
					c1.894,6.268,3.444,14.02-1.26,18.574c-3.025,2.928-7.747,3.441-10.926,6.201c-4.76,4.133-4.414,11.443-4.284,17.746
					c0.168,8.173-0.697,16.366-2.568,24.324c-0.505,2.147-1.235,4.488-3.127,5.621c-2.535,1.518-5.718,0.143-8.635-0.326
					c-6.78-1.091-13.418,3.137-17.726,8.486s-6.962,11.815-10.648,17.609c-3.686,5.794-8.931,11.21-15.694,12.405
					c-8.564,1.513-17.053-4.413-21.306-11.998c-4.056-7.233-4.293-15.186-6.288-23.017
					C351.957,389.734,349.43,382.716,350.452,374.977z"/>
				<path style="fill:#C54286;" d="M444.961,325.128c-0.366-0.393-0.981-0.414-1.372-0.048c-7.718,7.199-15.385,14.5-22.993,21.885
					c-0.088,0.062-0.166,0.135-0.229,0.221c-5.955,5.783-11.872,11.618-17.746,17.501l2.928-25.894
					c0.061-0.533-0.322-1.014-0.855-1.074c-0.534-0.059-1.015,0.322-1.074,0.856l-3.203,28.328
					c-3.654,3.673-7.291,7.364-10.909,11.072c-0.358,0.091-0.626,0.375-0.705,0.725c-5.959,6.115-11.866,12.275-17.718,18.473
					l4.38-33.191c0.07-0.532-0.304-1.02-0.836-1.09c-0.528-0.068-1.02,0.304-1.09,0.836l-4.732,35.861
					c-6.066,6.452-12.072,12.942-18.006,19.468c-0.361,0.396-0.332,1.011,0.065,1.371c0.186,0.169,0.42,0.253,0.653,0.253
					c0.264,0,0.527-0.107,0.718-0.318c12.448-13.69,25.205-27.229,38.198-40.556l34.392-4.204c0.532-0.065,0.911-0.549,0.846-1.082
					c-0.066-0.532-0.551-0.906-1.082-0.846l-31.989,3.91c9.551-9.759,19.228-19.4,29.007-28.899
					c5.233-0.628,10.525-0.539,15.735,0.276c0.051,0.008,0.101,0.011,0.151,0.011c0.47,0,0.883-0.342,0.958-0.821
					c0.083-0.53-0.28-1.026-0.81-1.109c-4.567-0.714-9.194-0.884-13.792-0.526c6.973-6.747,13.994-13.424,21.059-20.015
					C445.306,326.135,445.327,325.52,444.961,325.128z"/>
			</g>
			<path style="fill:#593B69;" d="M444.394,449.23H54c-1.949,0-3.53-1.58-3.53-3.53l0,0c0-1.949,1.58-3.53,3.53-3.53h390.394
				c1.949,0,3.53,1.58,3.53,3.53l0,0C447.923,447.65,446.343,449.23,444.394,449.23z"/>
			
				<linearGradient id="SVGID_00000029013546144865227170000016810913258938951046_" gradientUnits="userSpaceOnUse" x1="294.5692" y1="442.1709" x2="294.5692" y2="382.0802" gradientTransform="matrix(-1 0 0 1 628.2011 0)">
				<stop  offset="0" style="stop-color:#185A9D"/>
				<stop  offset="1" style="stop-color:#43CEA2"/>
			</linearGradient>
			<path style="fill:url(#SVGID_00000029013546144865227170000016810913258938951046_);" d="M256.109,401.174
				c1.681,0,3.323,0.164,4.917,0.463c7.259-11.735,20.24-19.557,35.052-19.557c17.588,0,32.593,11.027,38.501,26.542
				c2.453-0.689,5.037-1.066,7.71-1.066c10.893,0,20.351,6.123,25.133,15.113c2.339-1.663,5.191-2.651,8.279-2.651
				c0.908,0,1.796,0.088,2.657,0.25c3.922-6.341,10.937-10.568,18.94-10.568c9.504,0,17.612,5.959,20.804,14.342
				c1.326-0.372,2.722-0.576,4.166-0.576c8.492,0,15.375,6.884,15.375,15.375c0,1.144-0.129,2.257-0.366,3.329h-67.212h-6.34
				H233.948c-2.734-4.168-4.329-9.15-4.329-14.506C229.619,413.034,241.479,401.174,256.109,401.174z"/>
			<g>
				<path style="fill:#FFFFFF;" d="M223.537,410.568H80.954c0.613,3.893,0.955,8.187,0.955,12.703s-0.342,8.81-0.955,12.703h142.583
					c7.004,0,12.703-5.699,12.703-12.703S230.541,410.568,223.537,410.568z"/>
				<g>
					<path style="fill:#BC66C5;" d="M223.537,442.171H72.718v-6.197h150.819c7.004,0,12.703-5.699,12.703-12.703
						s-5.699-12.703-12.703-12.703H72.718v-6.197h150.819c10.421,0,18.899,8.479,18.899,18.9S233.958,442.171,223.537,442.171z"/>
				</g>
				<path style="opacity:0.1;" d="M223.537,410.568H80.954c0.437,2.778,0.735,5.76,0.87,8.882h141.713
					c5.44,0,10.08,3.444,11.886,8.262c0.519-1.385,0.817-2.877,0.817-4.441C236.24,416.267,230.541,410.568,223.537,410.568z"/>
				<polygon style="fill:#BC66C5;" points="113.086,432.2 108.598,429.98 104.11,432.2 104.11,423.224 113.086,423.224 				"/>
			</g>
			<path style="opacity:0.1;" d="M72.718,410.568h8.237c0.135,0.859,0.252,1.745,0.36,2.642c0.034,0.28,0.064,0.563,0.095,0.846
				c0.073,0.664,0.136,1.337,0.193,2.019c0.024,0.291,0.052,0.577,0.073,0.871c0.15,2.046,0.233,4.158,0.233,6.326
				c0,4.516-0.342,8.81-0.955,12.703h-8.237v6.197h101.064l37.799-37.799H72.718V410.568z"/>
			<g>
				<path style="fill:#FFFFFF;" d="M60.762,372.769h142.583c-0.613,3.893-0.955,8.187-0.955,12.703s0.342,8.81,0.955,12.703H60.762
					c-7.004,0-12.703-5.699-12.703-12.703S53.757,372.769,60.762,372.769z"/>
				<g>
					<path style="fill:#C54286;" d="M60.762,404.372h150.819v-6.197H60.762c-7.004,0-12.703-5.699-12.703-12.703
						s5.699-12.703,12.703-12.703h150.819v-6.197H60.762c-10.421,0-18.9,8.479-18.9,18.9S50.341,404.372,60.762,404.372z"/>
				</g>
				<path style="opacity:0.1;" d="M60.762,372.769h142.583c-0.438,2.778-0.735,5.76-0.87,8.882H60.762
					c-5.441,0-10.08,3.444-11.886,8.262c-0.519-1.385-0.817-2.877-0.817-4.441C48.059,378.468,53.757,372.769,60.762,372.769z"/>
				<polygon style="fill:#C54286;" points="183.753,394.448 179.265,392.228 174.777,394.448 174.777,385.472 183.753,385.472 				
					"/>
			</g>
			<g>
				<g>
					<path style="fill:#FF9944;" d="M387.199,442.171H237.022c-9.377,0-16.979-7.602-16.979-16.979V206.226
						c0-9.377,7.602-16.979,16.979-16.979h150.177c9.377,0,16.979,7.602,16.979,16.979v218.967
						C404.177,434.569,396.576,442.171,387.199,442.171z"/>
					<circle style="fill:#FFFFFF;" cx="312.336" cy="197.472" r="1.984"/>
					<path style="fill:#FFFFFF;" d="M387.198,195.408h-12.482c-1.023,0-1.853,0.83-1.853,1.853v0c0,4.225-3.425,7.65-7.65,7.65
						H259.008c-4.225,0-7.651-3.425-7.651-7.65l0,0c0-1.023-0.83-1.853-1.853-1.853h-12.483c-5.975,0-10.818,4.843-10.818,10.818
						v218.967c0,5.975,4.843,10.818,10.818,10.818h150.177c5.975,0,10.819-4.844,10.819-10.819V206.227
						C398.017,200.251,393.173,195.408,387.198,195.408z"/>
					<path style="opacity:0.06;" d="M387.199,189.247h-74.863v252.924h74.863c9.377,0,16.979-7.602,16.979-16.979V206.226
						C404.177,196.848,396.576,189.247,387.199,189.247z"/>
					<path style="opacity:0.06;" d="M337.45,430.508h-50.229c-1.57,0-2.843-1.273-2.843-2.843l0,0c0-1.57,1.273-2.843,2.843-2.843
						h50.229c1.57,0,2.843,1.273,2.843,2.843l0,0C340.294,429.235,339.021,430.508,337.45,430.508z"/>
				</g>
				<rect x="240.259" y="216.373" style="opacity:0.06;" width="144.35" height="88.239"/>
				<g>
					<rect x="240.259" y="315.709" style="opacity:0.06;" width="49.726" height="26.392"/>
					<rect x="240.259" y="352.596" style="opacity:0.06;" width="49.726" height="26.392"/>
					<rect x="240.259" y="389.484" style="opacity:0.06;" width="49.726" height="26.392"/>
				</g>
				<path style="opacity:0.06;" d="M381.452,322.023h-76.894c-1.743,0-3.157-1.413-3.157-3.157l0,0c0-1.743,1.413-3.157,3.157-3.157
					h76.894c1.743,0,3.157,1.413,3.157,3.157l0,0C384.608,320.609,383.195,322.023,381.452,322.023z"/>
				<path style="opacity:0.06;" d="M381.452,335.219h-76.894c-1.743,0-3.157-1.413-3.157-3.157l0,0c0-1.743,1.413-3.157,3.157-3.157
					h76.894c1.743,0,3.157,1.413,3.157,3.157l0,0C384.608,333.805,383.195,335.219,381.452,335.219z"/>
				<path style="opacity:0.06;" d="M381.452,348.415h-76.894c-1.743,0-3.157-1.413-3.157-3.157l0,0c0-1.743,1.413-3.157,3.157-3.157
					h76.894c1.743,0,3.157,1.413,3.157,3.157l0,0C384.608,347.002,383.195,348.415,381.452,348.415z"/>
				<path style="opacity:0.06;" d="M381.452,361.611h-76.894c-1.743,0-3.157-1.413-3.157-3.157l0,0c0-1.743,1.413-3.157,3.157-3.157
					h76.894c1.743,0,3.157,1.413,3.157,3.157l0,0C384.608,360.198,383.195,361.611,381.452,361.611z"/>
				<path style="opacity:0.06;" d="M381.452,374.808h-76.894c-1.743,0-3.157-1.413-3.157-3.157l0,0c0-1.743,1.413-3.157,3.157-3.157
					h76.894c1.743,0,3.157,1.413,3.157,3.157l0,0C384.608,373.394,383.195,374.808,381.452,374.808z"/>
				<path style="opacity:0.06;" d="M381.452,388.004h-76.894c-1.743,0-3.157-1.413-3.157-3.157l0,0c0-1.743,1.413-3.157,3.157-3.157
					h76.894c1.743,0,3.157,1.413,3.157,3.157l0,0C384.608,386.59,383.195,388.004,381.452,388.004z"/>
				<path style="opacity:0.06;" d="M381.452,401.2h-76.894c-1.743,0-3.157-1.413-3.157-3.157l0,0c0-1.743,1.413-3.157,3.157-3.157
					h76.894c1.743,0,3.157,1.413,3.157,3.157l0,0C384.608,399.787,383.195,401.2,381.452,401.2z"/>
				<path style="opacity:0.06;" d="M381.452,414.396h-76.894c-1.743,0-3.157-1.413-3.157-3.157l0,0c0-1.743,1.413-3.157,3.157-3.157
					h76.894c1.743,0,3.157,1.413,3.157,3.157l0,0C384.608,412.983,383.195,414.396,381.452,414.396z"/>
				
					<ellipse transform="matrix(0.1665 -0.986 0.986 0.1665 3.567 525.2057)" style="opacity:0.06;" cx="312.434" cy="260.493" rx="26.665" ry="26.665"/>
				<path style="opacity:0.06;" d="M327.389,256.638l-21.686-12.521c-2.968-1.713-6.678,0.428-6.678,3.855v25.041
					c0,3.427,3.71,5.569,6.678,3.855l21.686-12.521C330.357,262.635,330.357,258.351,327.389,256.638z"/>
			</g>
		</g>
		<g>
			<path style="fill:#EB66FF;" d="M357.299,228.786c0.592-0.874,1.201-1.786,1.359-2.829c0.159-1.044-0.273-2.257-1.251-2.655
				c0.776-1.354,1.136-3.366,0.547-4.811c-0.589-1.445-2.273-2.472-3.76-2.001c-1.347,0.427-2.119,1.839-2.521,3.194
				c-1.085,3.653-0.388,7.791,1.833,10.888C355.164,230.233,356.349,230.187,357.299,228.786z"/>
			<path style="fill:#0042C4;" d="M410.502,238.218c-1.927-0.263-3.856-0.827-5.429-1.971c-1.574-1.143-2.754-2.929-2.845-4.872
				c-0.09-1.943,1.077-3.97,2.925-4.579c1.814-0.598,3.778,0.197,5.443,1.134c1.664,0.936,3.334,2.061,5.241,2.174
				c1.488,0.088,2.966-0.461,4.451-0.33c2.764,0.244,4.949,3.223,4.351,5.932c1.328,1.555,2.027,3.673,1.545,5.661
				c-0.482,1.987-1.717,3.73-3.219,5.117c-1.502,1.387-3.269,2.452-5.047,3.462c0.291-1.868,0.254-4.047,0.091-5.93
				c-0.163-1.884-0.829-3.79-2.197-5.095C414.443,237.617,412.21,237.408,410.502,238.218z"/>
			<path style="fill:#241A4D;" d="M381.152,438.025c0.256,2.14-1.557,4.024-3.534,4.881c-1.977,0.857-4.186,1.035-6.205,1.788
				c-2.019,0.753-3.985,2.384-4.066,4.537h23.867c0.574-3.704,0.597-7.517,0.025-11.221
				C388.132,436.802,384.411,437.315,381.152,438.025z"/>
			<path style="fill:#241A4D;" d="M421.611,438.025c0.256,2.14-1.557,4.024-3.534,4.881c-1.977,0.857-4.186,1.035-6.205,1.788
				c-2.019,0.753-3.985,2.384-4.066,4.537h23.867c0.574-3.704,0.597-7.517,0.025-11.221
				C428.591,436.802,424.869,437.315,421.611,438.025z"/>
			<path style="fill:#3E2D87;" d="M393.34,439.313c5.684-18.414,9.674-37.899,11.402-57.042c1.984-21.978,12.443-43.578,14.2-65.576
				c-1.735-2.657-3.962-4.949-6.895-6.16c-2.933-1.211-6.073-1.822-9.188-2.426c-3.791-0.734-6.258-0.185-10.05-0.919
				c-4.248,44.041-8.496,88.082-12.744,132.123H393.34z"/>
			<path style="fill:#3E2D87;" d="M406.878,307.19c4.441,44.041,8.882,88.082,13.322,132.123h12.733
				c2.248-19.981,2.458-40.828,0.317-60.821c-2.349-21.942,3.689-45.169,1.114-67.086c-2.221-2.267-4.853-4.08-7.966-4.694
				c-3.113-0.615-6.312-0.6-9.485-0.584C413.052,306.148,410.74,307.169,406.878,307.19z"/>
			<path style="opacity:0.2;" d="M434.365,311.406c-2.221-2.267-4.853-4.08-7.966-4.694c-3.113-0.615-6.312-0.6-9.485-0.584
				c-3.862,0.02-6.174,1.042-10.036,1.062c0.06,0.599,0.121,1.198,0.181,1.796c-1.391-0.329-2.798-0.605-4.201-0.877
				c-3.404-0.66-5.749-0.291-8.935-0.74c-0.398,0.182-0.792,0.371-1.186,0.561c-0.212,2.195-0.423,4.39-0.635,6.585
				c11.462,10.227,27.69,14.969,42.86,12.579C435.09,321.815,434.972,316.573,434.365,311.406z"/>
			<path style="fill:#FFC349;" d="M415.603,250.063c-8.052,1.63-15.002,7.142-19.452,14.047c-4.45,6.905-6.58,15.103-7.296,23.286
				c-0.716,8.184-0.084,16.42,0.61,24.606c14.208,7.72,32.49,9.376,47.955,4.655c1.043-9.146,2.367-18.616,2.013-27.814
				c-0.354-9.198-2.168-18.481-6.538-26.582c-1.693-3.139-3.794-6.116-6.574-8.35C423.541,251.678,419.099,249.356,415.603,250.063z
				"/>
			<path style="opacity:0.2;" d="M423.559,303.584h15.312c0.056-0.598,0.107-1.196,0.157-1.794h-15.95l-5.23-19.517
				c-0.526-1.961-2.541-3.551-4.503-3.551h-23.146c-0.653,2.855-1.09,5.765-1.345,8.675c-0.471,5.383-0.354,10.788-0.025,16.187
				h17.101H423.559z"/>
			<g>
				<rect x="400.983" y="302.687" style="fill:#FFFFFF;" width="35.254" height="1.794"/>
				<rect x="400.983" y="302.687" style="opacity:0.3;" width="35.254" height="1.794"/>
				<path style="fill:#FFFFFF;" d="M418.61,304.481h-35.254l-5.71-21.311c-0.526-1.961,0.638-3.551,2.599-3.551h28.152
					c1.961,0,3.977,1.59,4.503,3.551L418.61,304.481z"/>
			</g>
			<path style="opacity:0.2;" d="M424.386,275.575c1.539-1.525,3.632-2.506,6.242-2.516c0.546-0.002,1.074,0.071,1.59,0.178
				c1.773-0.057,3.589,0.331,5.296,1.272c-1.04-4.259-2.536-8.389-4.618-12.248c-1.693-3.139-3.794-6.116-6.574-8.35
				c-0.416-0.334-0.872-0.669-1.353-0.996c-2.549,6.689-4.09,16.227-0.708,22.452C424.298,275.439,424.346,275.504,424.386,275.575z
				"/>
			<path style="opacity:0.2;" d="M437.594,293.333c0.016,0.148,0.034,0.296,0.043,0.446c0.307,5.378-4.299,10.042-9.438,11.654
				c-5.139,1.612-10.897,0.549-16.233-0.189c-0.131,0.218-0.257,0.445-0.376,0.678c-0.504-0.365-1.006-0.742-1.605-0.883
				c-0.735-0.173-1.675,0.209-1.755,0.96c-0.749,0.308-1.503-0.43-2.081-0.996c-0.579-0.567-1.235-1.228-2.042-1.162
				c-0.565,0.046-1.054,0.474-1.275,0.996c-0.221,0.522-0.204,1.12-0.063,1.669c0.431,1.674,1.95,2.901,3.597,3.425
				c1.313,0.417,2.704,0.457,4.087,0.385c0,0.299,0.013,0.595,0.053,0.886c5.511,1.402,11.189,2.374,16.868,2.066
				c3.673-0.199,7.353-0.974,10.724-2.419c0.724-6.237,1.383-12.563,1.389-18.798C438.899,292.546,438.265,292.976,437.594,293.333z
				"/>
			<path style="fill:#FFC349;" d="M413.209,250.439c-9.811,6.145-22.635,7.189-33.311,2.713
				c-10.677-4.476-18.921-14.354-21.416-25.658c-2.128-0.422-4.626,0.184-6.066,1.806c0.79,11.567,6.688,23.263,14.862,31.486
				c8.174,8.223,19.368,13.373,30.931,14.231c5.627,0.418,11.301-4.659,14.22-9.487C415.347,260.701,415.194,255.72,413.209,250.439
				z"/>
			<path style="fill:#EB66FF;" d="M413.986,305.295c-0.666,0.354-1.492,0.115-2.163-0.23c-0.671-0.345-1.318-0.801-2.068-0.884
				c-0.75-0.083-1.638,0.409-1.627,1.164c-0.707,0.396-1.543-0.246-2.186-0.739c-0.643-0.493-1.373-1.071-2.167-0.908
				c-0.555,0.114-0.989,0.597-1.146,1.142c-0.157,0.545-0.068,1.137,0.138,1.665c0.629,1.611,2.284,2.646,3.983,2.968
				c1.699,0.322,3.45,0.041,5.143-0.306C413.424,308.852,414.503,306.769,413.986,305.295z"/>
			<path style="fill:#FFC349;" d="M418.445,250.303c7.667,1.868,15.043,5.313,20.886,10.618
				c5.842,5.305,10.065,12.553,11.032,20.385s-1.541,16.181-7.205,21.676c-4.082,3.96-9.55,6.291-15.15,7.279
				c-5.6,0.988-11.354,0.705-16.994-0.024c-0.507-1.95-0.09-4.251,0.734-6.091c5.385,0.091,11.229,0.455,16.138-1.763
				c4.908-2.218,8.92-7.402,7.969-12.703c-0.684-3.81-3.668-6.769-6.752-9.108c-3.084-2.339-6.498-4.408-8.741-7.563
				C416.191,267.146,416.649,257.27,418.445,250.303z"/>
			<path style="fill:#EB66FF;" d="M412.784,245.573c-0.152,2.758-0.305,5.516-0.457,8.275c2.296,1.385,5.51,1.708,7.934,0.561
				c-0.111-2.836-0.247-5.653-0.358-8.489C417.93,244.818,414.881,244.731,412.784,245.573z"/>
			<path style="opacity:0.2;" d="M420.066,249.804c-0.057-1.293-0.113-2.586-0.164-3.884c-1.973-1.102-5.022-1.189-7.119-0.347
				c-0.152,2.758-0.305,5.516-0.457,8.274C415.118,252.964,417.749,251.592,420.066,249.804z"/>
			<path style="fill:#EB66FF;" d="M410.139,235.321c-0.978,4.643-0.869,9.512,0.317,14.106c2.789,0.804,6.312,0.628,8.743-0.958
				c2.431-1.586,4.07-4.382,4.116-7.284c0.047-2.903-1.564-5.809-4.122-7.182C416.635,232.63,412.322,233.407,410.139,235.321z"/>
			<path style="fill:#0042C4;" d="M408.36,237.41c2.85,1.478,6.333,1.677,9.333,0.534c0.105,0.991,0.457,1.939,0.907,2.828
				c-0.033,0.582-0.099,1.344-0.132,1.926l0.775,0.001c-0.165-0.676-0.082-1.674,0.276-2.271c0.358-0.597,1.169-0.952,1.787-0.631
				c0.411,0.214,0.653,0.675,0.694,1.136c0.042,0.461-0.092,0.922-0.279,1.345c-0.407,0.918-1.078,1.717-1.912,2.275
				c-0.347,1.364-0.336,2.781,0.151,4.102c1.548-1.59,3.153-3.449,3.954-5.518c0.802-2.069,1.038-4.397,0.409-6.525
				c-0.629-2.128-2.179-4.02-4.246-4.826c-1.579-0.616-3.341-0.582-5.015-0.314c-1.602,0.257-3.204,0.736-4.516,1.691
				C409.234,234.117,408.429,235.789,408.36,237.41z"/>
			<path style="opacity:0.2;" d="M400.983,292.05c0.432,1.612-0.525,2.918-2.136,2.918s-3.268-1.307-3.7-2.918
				c-0.432-1.612,0.525-2.918,2.136-2.918S400.551,290.438,400.983,292.05z"/>
		</g>
	</g>
</g>
<g id="DESIGNED_BY_FREEPIK">
	<g>
		<g id="XMLID_1_">
			<g id="XMLID_20_">
				<path id="XMLID_28_" style="fill:#1D262D;" d="M260.104,465.464c-0.432,0.443-0.803,0.931-1.108,1.453l-0.465-0.241
					c-0.067-0.298-0.349-0.503-0.659-0.466c-0.331,0.039-0.568,0.339-0.529,0.67s0.339,0.568,0.67,0.529
					c0.065-0.008,0.127-0.026,0.184-0.052l0.451,0.234c-0.251,0.554-0.433,1.139-0.539,1.744l0.746,0.132
					c0.23-1.306,0.85-2.507,1.792-3.473L260.104,465.464z"/>
				<path id="XMLID_27_" style="fill:#1D262D;" d="M265.592,463.162c-0.171,0-0.341,0.006-0.51,0.017l-0.074-0.626
					c0.188-0.149,0.296-0.389,0.266-0.645c-0.046-0.393-0.402-0.674-0.795-0.628s-0.674,0.402-0.628,0.795
					c0.03,0.254,0.189,0.461,0.405,0.564l0.073,0.624c-0.714,0.116-1.403,0.332-2.06,0.646l0.327,0.684
					c0.934-0.447,1.942-0.673,2.995-0.673c0.496,0,0.993,0.053,1.475,0.158l0.161-0.741
					C266.693,463.221,266.142,463.162,265.592,463.162z"/>
				<path id="XMLID_26_" style="fill:#1D262D;" d="M272.194,465.71c0.331-0.04,0.566-0.341,0.525-0.672
					c-0.04-0.331-0.341-0.566-0.672-0.526c-0.309,0.038-0.535,0.304-0.53,0.609l-0.416,0.363c-0.418-0.43-0.89-0.813-1.408-1.139
					l-0.404,0.641c1.134,0.715,2.021,1.726,2.563,2.925l0.69-0.313c-0.251-0.554-0.568-1.072-0.942-1.545l0.402-0.351
					C272.065,465.714,272.129,465.718,272.194,465.71z"/>
				<path id="XMLID_25_" style="fill:#1D262D;" d="M265.044,473.371c-0.386,0.023-0.775,0.035-1.157,0.035
					c-0.88,0-1.733-0.061-2.478-0.179c-0.39-0.062-0.846-0.155-1.27-0.292c1.046,1.861,3.069,3.125,5.388,3.125
					c2.855,0,5.262-1.916,5.95-4.504c-0.682,0.449-1.505,0.825-2.459,1.123C267.839,473.046,266.464,473.285,265.044,473.371z"/>
				<path id="XMLID_21_" style="fill:#1D262D;" d="M265.592,464.678c-3.352,0-6.08,2.666-6.08,5.943
					c0,0.426,0.046,0.849,0.137,1.261c0.674,0.483,2.706,0.89,5.348,0.731c2.879-0.173,5.297-0.957,6.672-2.159
					c-0.005-0.195-0.021-0.39-0.045-0.582C271.244,466.912,268.65,464.678,265.592,464.678z M263.432,471.193
					c-1.02,0-1.85-0.83-1.85-1.85c0-1.02,0.83-1.85,1.85-1.85c1.02,0,1.85,0.83,1.85,1.85
					C265.282,470.364,264.452,471.193,263.432,471.193z M268.17,470.285c-0.75,0-1.36-0.61-1.36-1.36s0.61-1.361,1.36-1.361
					c0.75,0,1.361,0.61,1.361,1.361S268.92,470.285,268.17,470.285z"/>
			</g>
			<path id="XMLID_18_" style="fill:#1D262D;" d="M281.595,466.546c-0.295-0.116-0.806-0.309-1.382-0.237
				c-0.551,0.069-0.844,0.341-0.844,1.007v0.866h2.228v1.717h-2.228v5.455h-1.932v-5.455h-1.34v-1.717h1.34v-0.888
				c0-1.68,0.895-2.783,2.568-2.783c0.642,0,1.157,0.122,1.59,0.308L281.595,466.546z"/>
			<path id="XMLID_16_" style="fill:#1D262D;" d="M286.298,469.878c-0.177-0.03-0.358-0.046-0.526-0.046
				c-0.896,0-1.51,0.548-1.51,1.613v3.908h-1.932v-7.172h1.873v0.785c0.451-0.673,1.14-0.977,2.021-0.977
				c0.414,0,0.848,0.128,1.094,0.337L286.298,469.878z"/>
			<path id="XMLID_13_" style="fill:#1D262D;" d="M293.965,471.756c0,0.222-0.015,0.489-0.037,0.651h-5.085
				c0.207,1.036,0.933,1.488,1.843,1.488c0.622,0,1.295-0.252,1.813-0.688l1.132,1.243c-0.814,0.748-1.85,1.088-3.057,1.088
				c-2.198,0-3.723-1.495-3.723-3.753c0-2.258,1.48-3.797,3.626-3.797C292.544,467.988,293.958,469.521,293.965,471.756z
				 M288.851,471.09h3.175c-0.178-0.918-0.733-1.436-1.562-1.436C289.554,469.654,289.021,470.202,288.851,471.09z"/>
			<path id="XMLID_10_" style="fill:#1D262D;" d="M301.618,471.756c0,0.222-0.015,0.489-0.037,0.651h-5.085
				c0.207,1.036,0.932,1.488,1.843,1.488c0.622,0,1.295-0.252,1.813-0.688l1.132,1.243c-0.814,0.748-1.85,1.088-3.057,1.088
				c-2.198,0-3.723-1.495-3.723-3.753c0-2.258,1.48-3.797,3.627-3.797C300.197,467.988,301.611,469.521,301.618,471.756z
				 M296.504,471.09h3.175c-0.178-0.918-0.733-1.436-1.562-1.436C297.207,469.654,296.674,470.202,296.504,471.09z"/>
			<path id="XMLID_7_" style="fill:#1D262D;" d="M309.964,471.763c0,2.154-1.495,3.775-3.471,3.775
				c-0.962,0-1.643-0.378-2.109-0.933v3.708h-1.924v-10.133h1.887v0.792c0.466-0.585,1.155-0.984,2.139-0.984
				C308.469,467.988,309.964,469.609,309.964,471.763z M304.287,471.763c0,1.132,0.747,1.976,1.843,1.976
				c1.14,0,1.85-0.881,1.85-1.976c0-1.095-0.711-1.976-1.85-1.976C305.035,469.787,304.287,470.631,304.287,471.763z"/>
			<path id="XMLID_4_" style="fill:#1D262D;" d="M313.068,465.835c0,0.696-0.54,1.229-1.236,1.229c-0.696,0-1.229-0.533-1.229-1.229
				c0-0.696,0.533-1.243,1.229-1.243C312.527,464.591,313.068,465.139,313.068,465.835z M312.809,475.353h-1.932v-7.172h1.932
				V475.353z"/>
			<path id="XMLID_2_" style="fill:#1D262D;" d="M316.032,470.734l2.702-2.554h2.368l-3.479,3.375l3.501,3.797h-2.376l-2.716-2.901
				v2.901H314.1v-10.658h1.932V470.734z"/>
		</g>
		<g>
			<path style="fill:#1D262D;" d="M184.412,475.288v-1.055c-0.527,0.718-1.391,1.23-2.387,1.23c-1.846,0-3.149-1.406-3.149-3.706
				c0-2.256,1.289-3.721,3.149-3.721c0.952,0,1.816,0.469,2.387,1.245v-3.765h1.099v9.77H184.412z M184.412,473.369v-3.208
				c-0.395-0.615-1.245-1.143-2.124-1.143c-1.421,0-2.27,1.172-2.27,2.739c0,1.567,0.85,2.724,2.27,2.724
				C183.168,474.482,184.017,473.984,184.412,473.369z"/>
			<path style="fill:#1D262D;" d="M186.932,471.743c0-2.051,1.465-3.706,3.486-3.706c2.139,0,3.398,1.67,3.398,3.794v0.279h-5.727
				c0.088,1.333,1.025,2.446,2.549,2.446c0.805,0,1.626-0.322,2.182-0.894l0.527,0.718c-0.703,0.703-1.655,1.084-2.812,1.084
				C188.441,475.464,186.932,473.955,186.932,471.743z M190.404,468.946c-1.509,0-2.256,1.274-2.314,2.358h4.643
				C192.718,470.249,192.015,468.946,190.404,468.946z"/>
			<path style="fill:#1D262D;" d="M194.607,474.35l0.571-0.791c0.469,0.542,1.362,1.011,2.329,1.011c1.084,0,1.67-0.513,1.67-1.216
				c0-1.714-4.38-0.659-4.38-3.281c0-1.098,0.952-2.036,2.636-2.036c1.201,0,2.051,0.454,2.622,1.026l-0.513,0.762
				c-0.424-0.513-1.201-0.894-2.109-0.894c-0.967,0-1.567,0.483-1.567,1.113c0,1.552,4.38,0.527,4.38,3.281
				c0,1.187-0.952,2.138-2.783,2.138C196.306,475.464,195.325,475.112,194.607,474.35z"/>
			<path style="fill:#1D262D;" d="M201.477,466.47c0-0.41,0.337-0.747,0.732-0.747c0.41,0,0.747,0.337,0.747,0.747
				c0,0.41-0.337,0.732-0.747,0.732C201.814,467.202,201.477,466.88,201.477,466.47z M201.667,475.288v-7.075h1.099v7.075H201.667z"
				/>
			<path style="fill:#1D262D;" d="M204.582,477.104l0.556-0.82c0.586,0.703,1.289,0.967,2.3,0.967c1.172,0,2.27-0.571,2.27-2.124
				v-1.011c-0.513,0.718-1.377,1.26-2.373,1.26c-1.845,0-3.149-1.377-3.149-3.662c0-2.27,1.289-3.676,3.149-3.676
				c0.952,0,1.802,0.469,2.373,1.245v-1.069h1.098v6.87c0,2.344-1.641,3.076-3.369,3.076
				C206.237,478.159,205.417,477.924,204.582,477.104z M209.709,473.252v-3.091c-0.381-0.615-1.23-1.143-2.109-1.143
				c-1.421,0-2.27,1.128-2.27,2.695c0,1.553,0.849,2.695,2.27,2.695C208.478,474.409,209.328,473.867,209.709,473.252z"/>
			<path style="fill:#1D262D;" d="M217.413,475.288v-4.629c0-1.245-0.63-1.641-1.582-1.641c-0.864,0-1.685,0.527-2.095,1.099v5.17
				h-1.099v-7.075h1.099v1.025c0.498-0.586,1.464-1.201,2.519-1.201c1.48,0,2.256,0.747,2.256,2.285v4.966H217.413z"/>
			<path style="fill:#1D262D;" d="M219.932,471.743c0-2.051,1.465-3.706,3.486-3.706c2.139,0,3.398,1.67,3.398,3.794v0.279h-5.727
				c0.088,1.333,1.025,2.446,2.549,2.446c0.806,0,1.626-0.322,2.183-0.894l0.527,0.718c-0.703,0.703-1.655,1.084-2.812,1.084
				C221.441,475.464,219.932,473.955,219.932,471.743z M223.404,468.946c-1.509,0-2.256,1.274-2.314,2.358h4.643
				C225.718,470.249,225.015,468.946,223.404,468.946z"/>
			<path style="fill:#1D262D;" d="M233.35,475.288v-1.055c-0.527,0.718-1.391,1.23-2.388,1.23c-1.846,0-3.149-1.406-3.149-3.706
				c0-2.256,1.289-3.721,3.149-3.721c0.952,0,1.817,0.469,2.388,1.245v-3.765h1.099v9.77H233.35z M233.35,473.369v-3.208
				c-0.396-0.615-1.245-1.143-2.124-1.143c-1.421,0-2.27,1.172-2.27,2.739c0,1.567,0.849,2.724,2.27,2.724
				C232.105,474.482,232.954,473.984,233.35,473.369z"/>
			<path style="fill:#1D262D;" d="M239.692,475.288v-9.77h1.098v3.765c0.572-0.776,1.421-1.245,2.388-1.245
				c1.845,0,3.149,1.465,3.149,3.721c0,2.299-1.304,3.706-3.149,3.706c-0.996,0-1.86-0.513-2.388-1.23v1.055H239.692z
				 M242.9,474.482c1.436,0,2.286-1.157,2.286-2.724c0-1.568-0.85-2.739-2.286-2.739c-0.864,0-1.728,0.527-2.109,1.143v3.208
				C241.171,473.984,242.036,474.482,242.9,474.482z"/>
			<path style="fill:#1D262D;" d="M247.529,477.06c0.161,0.073,0.425,0.117,0.601,0.117c0.483,0,0.805-0.161,1.055-0.747
				l0.469-1.069l-2.959-7.148h1.187l2.358,5.8l2.344-5.8h1.201l-3.545,8.51c-0.425,1.025-1.143,1.421-2.08,1.435
				c-0.234,0-0.601-0.044-0.805-0.103L247.529,477.06z"/>
		</g>
	</g>
</g>
</svg>
